<svg width="169" height="123" viewBox="0 0 169 123" fill="none" xmlns="http://www.w3.org/2000/svg">
<path d="M56.7491 31.4358L56.2669 31.568L56.3939 32.0308L56.8615 31.923L56.7491 31.4358ZM123.386 79.8667L122.888 79.9169L122.929 80.3154L123.326 80.3631L123.386 79.8667ZM166.281 122.59L168.968 117.48L163.199 117.708L166.281 122.59ZM0.776051 2.54951C8.05272 0.851568 19.789 0.226812 30.7729 3.97448C41.7304 7.71313 51.9422 15.7999 56.2669 31.568L57.2313 31.3035C52.8069 15.1721 42.3214 6.85818 31.0958 3.02805C19.8967 -0.793055 7.96426 -0.154653 0.548815 1.57567L0.776051 2.54951ZM56.8615 31.923C70.6729 28.738 85.9714 28.7559 98.4026 35.5289C110.803 42.2853 120.458 55.8234 122.888 79.9169L123.883 79.8165C121.428 55.479 111.639 41.6019 98.8811 34.6507C86.1531 27.7161 70.5762 27.734 56.6368 30.9485L56.8615 31.923ZM123.326 80.3631C130.104 81.1765 140.093 84.0519 148.678 90.0189C157.251 95.9778 164.403 105.002 165.605 118.138L166.601 118.047C165.366 104.55 158.003 95.283 149.248 89.1977C140.505 83.1205 130.353 80.1993 123.445 79.3702L123.326 80.3631Z" fill="url(#paint0_linear_90_122)"/>
<defs>
<linearGradient id="paint0_linear_90_122" x1="86.4072" y1="4.33531" x2="-66.5" y2="0.036259" gradientUnits="userSpaceOnUse">
<stop stop-color="#5520E8" stop-opacity="0.56"/>
<stop offset="1" stop-color="white" stop-opacity="0"/>
</linearGradient>
</defs>
</svg>
